<svg width="120" height="60" viewBox="0 0 120 60" fill="none" xmlns="http://www.w3.org/2000/svg">
<path fill-rule="evenodd" clip-rule="evenodd" d="M0 30.105V35.2101H60H120V30.105V25H60H0V30.105ZM74.0336 28.3403C74.0336 28.3519 74.1092 28.3613 74.2017 28.3613C74.2941 28.3613 74.3698 28.3708 74.3698 28.3824C74.3698 28.3939 74.4265 28.4034 74.4958 28.4034C74.5651 28.4034 74.6219 28.4128 74.6219 28.4244C74.6219 28.4359 74.6786 28.4454 74.7479 28.4454C74.8172 28.4454 74.874 28.4549 74.874 28.4664C74.874 28.478 74.9076 28.4874 74.9487 28.4874C74.9898 28.4874 75.0507 28.5063 75.084 28.5294C75.1174 28.5525 75.1782 28.5714 75.2194 28.5714C75.2605 28.5714 75.2941 28.5809 75.2941 28.5924C75.2941 28.604 75.3227 28.6134 75.3576 28.6134C75.4384 28.6134 76.3025 29.044 76.3025 29.0842C76.3025 29.1007 76.326 29.1181 76.3547 29.1229C76.42 29.1337 76.2951 29.2017 76.2097 29.2017C76.1785 29.2017 76.1258 29.2206 76.0924 29.2437C76.0591 29.2668 76.0024 29.2857 75.9664 29.2857C75.9304 29.2857 75.8737 29.3046 75.8403 29.3277C75.807 29.3508 75.7461 29.3697 75.705 29.3697C75.6639 29.3697 75.6303 29.3792 75.6303 29.3908C75.6303 29.4023 75.5924 29.4118 75.5462 29.4118C75.4991 29.4118 75.4622 29.3977 75.4622 29.3799C75.4622 29.3412 74.8553 29.0336 74.7789 29.0336C74.7489 29.0336 74.6972 29.0147 74.6639 28.9916C74.6305 28.9685 74.5697 28.9496 74.5285 28.9496C74.4874 28.9496 74.4538 28.9402 74.4538 28.9286C74.4538 28.917 74.3971 28.9076 74.3277 28.9076C74.2584 28.9076 74.2017 28.8981 74.2017 28.8866C74.2017 28.875 74.145 28.8655 74.0756 28.8655C74.0063 28.8655 73.9496 28.8561 73.9496 28.8445C73.9496 28.8315 73.7255 28.8235 73.3613 28.8235C72.9972 28.8235 72.7731 28.8315 72.7731 28.8445C72.7731 28.8561 72.7164 28.8655 72.6471 28.8655C72.5777 28.8655 72.521 28.875 72.521 28.8866C72.521 28.8981 72.4832 28.9076 72.437 28.9076C72.3908 28.9076 72.3529 28.917 72.3529 28.9286C72.3529 28.9402 72.3151 28.9496 72.2689 28.9496C72.2227 28.9496 72.1849 28.9591 72.1849 28.9706C72.1849 28.9822 72.1471 28.9916 72.1008 28.9916C72.0546 28.9916 72.0168 29.001 72.0168 29.0126C72.0168 29.0241 71.9881 29.0336 71.953 29.0336C71.8754 29.0336 71.3445 29.295 71.3445 29.3332C71.3445 29.3482 71.3067 29.3741 71.2605 29.3908C71.2143 29.4074 71.1765 29.4379 71.1765 29.4584C71.1765 29.479 71.1576 29.4958 71.1345 29.4958C71.1113 29.4958 71.0924 29.5147 71.0924 29.5378C71.0924 29.5609 71.0735 29.5798 71.0504 29.5798C71.0273 29.5798 71.0084 29.5987 71.0084 29.6218C71.0084 29.6449 70.9895 29.6639 70.9664 29.6639C70.9433 29.6639 70.9244 29.6923 70.9244 29.7269C70.9244 29.7615 70.9055 29.7899 70.8824 29.7899C70.8565 29.7899 70.8403 29.8949 70.8403 30.063C70.8403 30.2311 70.8565 30.3361 70.8824 30.3361C70.9055 30.3361 70.9244 30.374 70.9244 30.4202C70.9244 30.4664 70.9433 30.5042 70.9664 30.5042C70.9895 30.5042 71.0084 30.5231 71.0084 30.5462C71.0084 30.5693 71.0273 30.5882 71.0504 30.5882C71.0735 30.5882 71.0924 30.6072 71.0924 30.6303C71.0924 30.6534 71.1113 30.6723 71.1345 30.6723C71.1576 30.6723 71.1765 30.6891 71.1765 30.7097C71.1765 30.7302 71.2143 30.7606 71.2605 30.7773C71.3067 30.794 71.3445 30.8199 71.3445 30.8349C71.3445 30.8705 71.7884 31.0924 71.8596 31.0924C71.8896 31.0924 71.9415 31.1114 71.9748 31.1345C72.0081 31.1576 72.069 31.1765 72.1101 31.1765C72.1512 31.1765 72.1849 31.1859 72.1849 31.1975C72.1849 31.2091 72.2227 31.2185 72.2689 31.2185C72.3151 31.2185 72.3529 31.228 72.3529 31.2395C72.3529 31.251 72.3908 31.2605 72.437 31.2605C72.4832 31.2605 72.521 31.2699 72.521 31.2815C72.521 31.293 72.5966 31.3025 72.6891 31.3025C72.7815 31.3025 72.8571 31.3119 72.8571 31.3235C72.8571 31.3363 73.0532 31.3445 73.3613 31.3445C73.6695 31.3445 73.8655 31.3363 73.8655 31.3235C73.8655 31.3119 73.9412 31.3025 74.0336 31.3025C74.1261 31.3025 74.2017 31.293 74.2017 31.2815C74.2017 31.2699 74.2395 31.2605 74.2857 31.2605C74.3319 31.2605 74.3698 31.251 74.3698 31.2395C74.3698 31.228 74.4076 31.2185 74.4538 31.2185C74.5 31.2185 74.5378 31.2091 74.5378 31.1975C74.5378 31.1859 74.5715 31.1765 74.6126 31.1765C74.6537 31.1765 74.7146 31.1576 74.7479 31.1345C74.7812 31.1114 74.8331 31.0924 74.8631 31.0924C74.9396 31.0924 75.3782 30.8692 75.3782 30.8303C75.3782 30.8127 75.3971 30.7983 75.4202 30.7983C75.4454 30.7983 75.4622 30.7143 75.4622 30.5882V30.3782H74.3277H73.1933V30.1471V29.916H74.8319H76.4706V30.8403V31.7647H76.0084H75.5462V31.6176C75.5462 31.4638 75.5209 31.4427 75.4202 31.5126C75.3869 31.5357 75.3301 31.5546 75.2941 31.5546C75.2581 31.5546 75.2014 31.5735 75.1681 31.5966C75.1348 31.6197 75.0739 31.6387 75.0327 31.6387C74.9916 31.6387 74.958 31.6481 74.958 31.6597C74.958 31.6712 74.9202 31.6807 74.874 31.6807C74.8277 31.6807 74.7899 31.6902 74.7899 31.7017C74.7899 31.7133 74.7332 31.7227 74.6639 31.7227C74.5945 31.7227 74.5378 31.7322 74.5378 31.7437C74.5378 31.7552 74.4811 31.7647 74.4118 31.7647C74.3424 31.7647 74.2857 31.7741 74.2857 31.7857C74.2857 31.7972 74.2101 31.8067 74.1176 31.8067C74.0252 31.8067 73.9496 31.8162 73.9496 31.8277C73.9496 31.8406 73.7395 31.8487 73.4034 31.8487C73.0672 31.8487 72.8571 31.8406 72.8571 31.8277C72.8571 31.8162 72.7626 31.8067 72.6471 31.8067C72.5315 31.8067 72.437 31.7972 72.437 31.7857C72.437 31.7741 72.3803 31.7647 72.3109 31.7647C72.2416 31.7647 72.1849 31.7552 72.1849 31.7437C72.1849 31.7322 72.1282 31.7227 72.0588 31.7227C71.9895 31.7227 71.9328 31.7133 71.9328 31.7017C71.9328 31.6902 71.895 31.6807 71.8487 31.6807C71.8025 31.6807 71.7647 31.6712 71.7647 31.6597C71.7647 31.6481 71.7269 31.6387 71.6807 31.6387C71.6345 31.6387 71.5966 31.6292 71.5966 31.6176C71.5966 31.6061 71.563 31.5966 71.5219 31.5966C71.4808 31.5966 71.4199 31.5777 71.3866 31.5546C71.3532 31.5315 71.3015 31.5126 71.2716 31.5126C71.2008 31.5126 70.5042 31.1644 70.5042 31.1289C70.5042 31.114 70.4664 31.0881 70.4202 31.0714C70.374 31.0547 70.3361 31.0243 70.3361 31.0037C70.3361 30.9832 70.3172 30.9664 70.2941 30.9664C70.271 30.9664 70.2521 30.9475 70.2521 30.9244C70.2521 30.9013 70.2332 30.8824 70.2101 30.8824C70.187 30.8824 70.1681 30.8634 70.1681 30.8403C70.1681 30.8172 70.1492 30.7983 70.1261 30.7983C70.1029 30.7983 70.084 30.7794 70.084 30.7563C70.084 30.7332 70.0651 30.7143 70.042 30.7143C70.0189 30.7143 70 30.6859 70 30.6513C70 30.6166 69.9811 30.5882 69.958 30.5882C69.9349 30.5882 69.916 30.541 69.916 30.4832C69.916 30.4254 69.8971 30.3782 69.874 30.3782C69.8478 30.3782 69.8319 30.2591 69.8319 30.063C69.8319 29.8669 69.8478 29.7479 69.874 29.7479C69.8971 29.7479 69.916 29.7101 69.916 29.6639C69.916 29.6177 69.9349 29.5798 69.958 29.5798C69.9811 29.5798 70 29.5514 70 29.5168C70 29.4822 70.0189 29.4538 70.042 29.4538C70.0651 29.4538 70.084 29.4349 70.084 29.4118C70.084 29.3887 70.1029 29.3697 70.1261 29.3697C70.1492 29.3697 70.1681 29.3435 70.1681 29.3113C70.1681 29.2771 70.2028 29.2405 70.2521 29.2227C70.2983 29.206 70.3361 29.1777 70.3361 29.1597C70.3361 29.1417 70.374 29.1133 70.4202 29.0966C70.4664 29.08 70.5042 29.0541 70.5042 29.0392C70.5042 29.0037 71.2008 28.6555 71.2716 28.6555C71.3015 28.6555 71.3532 28.6365 71.3866 28.6134C71.4199 28.5903 71.4808 28.5714 71.5219 28.5714C71.563 28.5714 71.5966 28.5619 71.5966 28.5504C71.5966 28.5388 71.6345 28.5294 71.6807 28.5294C71.7269 28.5294 71.7647 28.5199 71.7647 28.5084C71.7647 28.4969 71.8025 28.4874 71.8487 28.4874C71.895 28.4874 71.9328 28.478 71.9328 28.4664C71.9328 28.4549 71.9706 28.4454 72.0168 28.4454C72.063 28.4454 72.1008 28.4359 72.1008 28.4244C72.1008 28.4128 72.1576 28.4034 72.2269 28.4034C72.2962 28.4034 72.3529 28.3939 72.3529 28.3824C72.3529 28.3708 72.4286 28.3613 72.521 28.3613C72.6134 28.3613 72.6891 28.3519 72.6891 28.3403C72.6891 28.3272 72.9412 28.3193 73.3613 28.3193C73.7815 28.3193 74.0336 28.3272 74.0336 28.3403ZM85.2941 28.3403C85.2941 28.3519 85.3698 28.3613 85.4622 28.3613C85.5546 28.3613 85.6303 28.3708 85.6303 28.3824C85.6303 28.3939 85.687 28.4034 85.7563 28.4034C85.8256 28.4034 85.8824 28.4128 85.8824 28.4244C85.8824 28.4359 85.9391 28.4454 86.0084 28.4454C86.0777 28.4454 86.1345 28.4549 86.1345 28.4664C86.1345 28.478 86.1723 28.4874 86.2185 28.4874C86.2647 28.4874 86.3025 28.4969 86.3025 28.5084C86.3025 28.5199 86.3362 28.5294 86.3773 28.5294C86.4184 28.5294 86.4793 28.5483 86.5126 28.5714C86.5459 28.5945 86.5986 28.6134 86.6297 28.6134C86.6607 28.6134 86.7782 28.6607 86.8908 28.7185C87.0033 28.7763 87.125 28.8235 87.1611 28.8235C87.1973 28.8235 87.2269 28.8385 87.2269 28.8567C87.2269 28.875 87.3025 28.9262 87.395 28.9706C87.4874 29.015 87.563 29.0641 87.563 29.0798C87.563 29.0955 87.6008 29.122 87.6471 29.1387C87.6933 29.1553 87.7311 29.1858 87.7311 29.2063C87.7311 29.2269 87.75 29.2437 87.7731 29.2437C87.7962 29.2437 87.8151 29.2626 87.8151 29.2857C87.8151 29.3088 87.834 29.3277 87.8571 29.3277C87.8803 29.3277 87.8992 29.3466 87.8992 29.3697C87.8992 29.3928 87.9181 29.4118 87.9412 29.4118C87.9643 29.4118 87.9832 29.4402 87.9832 29.4748C87.9832 29.5094 88.0021 29.5378 88.0252 29.5378C88.0483 29.5378 88.0672 29.5756 88.0672 29.6218C88.0672 29.668 88.0861 29.7059 88.1092 29.7059C88.1356 29.7059 88.1513 29.8389 88.1513 30.063C88.1513 30.2871 88.1356 30.4202 88.1092 30.4202C88.0861 30.4202 88.0672 30.458 88.0672 30.5042C88.0672 30.5504 88.0483 30.5882 88.0252 30.5882C88.0021 30.5882 87.9832 30.6166 87.9832 30.6513C87.9832 30.6859 87.9643 30.7143 87.9412 30.7143C87.9181 30.7143 87.8992 30.7427 87.8992 30.7773C87.8992 30.8119 87.8803 30.8403 87.8571 30.8403C87.834 30.8403 87.8151 30.8593 87.8151 30.8824C87.8151 30.9055 87.7962 30.9244 87.7731 30.9244C87.75 30.9244 87.7311 30.9412 87.7311 30.9618C87.7311 30.9823 87.6933 31.0127 87.6471 31.0294C87.6008 31.0461 87.563 31.0719 87.563 31.0868C87.563 31.1222 86.7823 31.5126 86.7115 31.5126C86.6816 31.5126 86.63 31.5315 86.5966 31.5546C86.5633 31.5777 86.5024 31.5966 86.4613 31.5966C86.4202 31.5966 86.3866 31.6061 86.3866 31.6176C86.3866 31.6292 86.3487 31.6387 86.3025 31.6387C86.2563 31.6387 86.2185 31.6481 86.2185 31.6597C86.2185 31.6712 86.1807 31.6807 86.1345 31.6807C86.0882 31.6807 86.0504 31.6902 86.0504 31.7017C86.0504 31.7133 86.0126 31.7227 85.9664 31.7227C85.9202 31.7227 85.8824 31.7322 85.8824 31.7437C85.8824 31.7552 85.8256 31.7647 85.7563 31.7647C85.687 31.7647 85.6303 31.7741 85.6303 31.7857C85.6303 31.7972 85.5357 31.8067 85.4202 31.8067C85.3046 31.8067 85.2101 31.8162 85.2101 31.8277C85.2101 31.8406 85 31.8487 84.6639 31.8487C84.3277 31.8487 84.1176 31.8406 84.1176 31.8277C84.1176 31.8162 84.0231 31.8067 83.9076 31.8067C83.792 31.8067 83.6975 31.7972 83.6975 31.7857C83.6975 31.7741 83.6408 31.7647 83.5714 31.7647C83.5021 31.7647 83.4454 31.7552 83.4454 31.7437C83.4454 31.7322 83.3887 31.7227 83.3193 31.7227C83.25 31.7227 83.1933 31.7133 83.1933 31.7017C83.1933 31.6902 83.1555 31.6807 83.1092 31.6807C83.063 31.6807 83.0252 31.6712 83.0252 31.6597C83.0252 31.6481 82.9874 31.6387 82.9412 31.6387C82.895 31.6387 82.8571 31.6292 82.8571 31.6176C82.8571 31.6061 82.8235 31.5966 82.7824 31.5966C82.7413 31.5966 82.6804 31.5777 82.6471 31.5546C82.6137 31.5315 82.562 31.5126 82.5321 31.5126C82.4613 31.5126 81.7647 31.1644 81.7647 31.1289C81.7647 31.114 81.7269 31.0881 81.6807 31.0714C81.6345 31.0547 81.5966 31.0243 81.5966 31.0037C81.5966 30.9832 81.5777 30.9664 81.5546 30.9664C81.5315 30.9664 81.5126 30.9475 81.5126 30.9244C81.5126 30.9013 81.4937 30.8824 81.4706 30.8824C81.4475 30.8824 81.4286 30.8634 81.4286 30.8403C81.4286 30.8172 81.4097 30.7983 81.3866 30.7983C81.3634 30.7983 81.3445 30.7794 81.3445 30.7563C81.3445 30.7332 81.3256 30.7143 81.3025 30.7143C81.2794 30.7143 81.2605 30.6859 81.2605 30.6513C81.2605 30.6166 81.2416 30.5882 81.2185 30.5882C81.1954 30.5882 81.1765 30.541 81.1765 30.4832C81.1765 30.4254 81.1576 30.3782 81.1345 30.3782C81.1084 30.3782 81.0924 30.2661 81.0924 30.084C81.0924 29.9019 81.1084 29.7899 81.1345 29.7899C81.1576 29.7899 81.1765 29.7427 81.1765 29.6849C81.1765 29.6271 81.1954 29.5798 81.2185 29.5798C81.2416 29.5798 81.2605 29.5514 81.2605 29.5168C81.2605 29.4822 81.2794 29.4538 81.3025 29.4538C81.3256 29.4538 81.3445 29.4349 81.3445 29.4118C81.3445 29.3887 81.3634 29.3697 81.3866 29.3697C81.4097 29.3697 81.4286 29.3508 81.4286 29.3277C81.4286 29.3046 81.4475 29.2857 81.4706 29.2857C81.4937 29.2857 81.5126 29.2668 81.5126 29.2437C81.5126 29.2206 81.5315 29.2017 81.5546 29.2017C81.5777 29.2017 81.5966 29.1849 81.5966 29.1643C81.5966 29.1438 81.6345 29.1133 81.6807 29.0966C81.7269 29.08 81.7647 29.0541 81.7647 29.0392C81.7647 29.0037 82.4613 28.6555 82.5321 28.6555C82.562 28.6555 82.6137 28.6365 82.6471 28.6134C82.6804 28.5903 82.7413 28.5714 82.7824 28.5714C82.8235 28.5714 82.8571 28.5619 82.8571 28.5504C82.8571 28.5388 82.895 28.5294 82.9412 28.5294C82.9874 28.5294 83.0252 28.5199 83.0252 28.5084C83.0252 28.4969 83.063 28.4874 83.1092 28.4874C83.1555 28.4874 83.1933 28.478 83.1933 28.4664C83.1933 28.4549 83.2311 28.4454 83.2773 28.4454C83.3235 28.4454 83.3613 28.4359 83.3613 28.4244C83.3613 28.4128 83.4181 28.4034 83.4874 28.4034C83.5567 28.4034 83.6134 28.3939 83.6134 28.3824C83.6134 28.3708 83.6891 28.3613 83.7815 28.3613C83.874 28.3613 83.9496 28.3519 83.9496 28.3403C83.9496 28.3272 84.2017 28.3193 84.6219 28.3193C85.042 28.3193 85.2941 28.3272 85.2941 28.3403ZM96.8908 28.3403C96.8908 28.3519 96.9664 28.3613 97.0588 28.3613C97.1513 28.3613 97.2269 28.3708 97.2269 28.3824C97.2269 28.3939 97.2836 28.4034 97.3529 28.4034C97.4223 28.4034 97.479 28.4128 97.479 28.4244C97.479 28.4359 97.5357 28.4454 97.605 28.4454C97.6744 28.4454 97.7311 28.4549 97.7311 28.4664C97.7311 28.478 97.7689 28.4874 97.8151 28.4874C97.8613 28.4874 97.8992 28.4969 97.8992 28.5084C97.8992 28.5199 97.9328 28.5294 97.9739 28.5294C98.015 28.5294 98.0759 28.5483 98.1092 28.5714C98.1426 28.5945 98.1942 28.6134 98.224 28.6134C98.2948 28.6134 99.1597 29.0458 99.1597 29.0812C99.1597 29.0962 99.1975 29.122 99.2437 29.1387C99.2899 29.1553 99.3277 29.1858 99.3277 29.2063C99.3277 29.2269 99.3466 29.2437 99.3698 29.2437C99.3929 29.2437 99.4118 29.2626 99.4118 29.2857C99.4118 29.3088 99.4307 29.3277 99.4538 29.3277C99.4769 29.3277 99.4958 29.3561 99.4958 29.3908C99.4958 29.4254 99.5147 29.4538 99.5378 29.4538C99.5609 29.4538 99.5798 29.4727 99.5798 29.4958C99.5798 29.5189 99.5987 29.5378 99.6219 29.5378C99.645 29.5378 99.6639 29.5756 99.6639 29.6218C99.6639 29.668 99.6828 29.7059 99.7059 29.7059C99.7322 29.7059 99.7479 29.8389 99.7479 30.063C99.7479 30.2871 99.7322 30.4202 99.7059 30.4202C99.6828 30.4202 99.6639 30.458 99.6639 30.5042C99.6639 30.5504 99.645 30.5882 99.6219 30.5882C99.5987 30.5882 99.5798 30.6166 99.5798 30.6513C99.5798 30.6859 99.5609 30.7143 99.5378 30.7143C99.5147 30.7143 99.4958 30.7427 99.4958 30.7773C99.4958 30.8119 99.4769 30.8403 99.4538 30.8403C99.4307 30.8403 99.4118 30.8593 99.4118 30.8824C99.4118 30.9055 99.3929 30.9244 99.3698 30.9244C99.3466 30.9244 99.3277 30.9412 99.3277 30.9618C99.3277 30.9823 99.2899 31.0127 99.2437 31.0294C99.1975 31.0461 99.1597 31.0719 99.1597 31.0868C99.1597 31.1222 98.3789 31.5126 98.3081 31.5126C98.2783 31.5126 98.2266 31.5315 98.1933 31.5546C98.16 31.5777 98.0991 31.5966 98.0579 31.5966C98.0169 31.5966 97.9832 31.6061 97.9832 31.6176C97.9832 31.6292 97.9454 31.6387 97.8992 31.6387C97.8529 31.6387 97.8151 31.6481 97.8151 31.6597C97.8151 31.6712 97.7773 31.6807 97.7311 31.6807C97.6849 31.6807 97.6471 31.6902 97.6471 31.7017C97.6471 31.7133 97.6092 31.7227 97.563 31.7227C97.5168 31.7227 97.479 31.7322 97.479 31.7437C97.479 31.7552 97.4223 31.7647 97.3529 31.7647C97.2836 31.7647 97.2269 31.7741 97.2269 31.7857C97.2269 31.7972 97.1324 31.8067 97.0168 31.8067C96.9013 31.8067 96.8067 31.8162 96.8067 31.8277C96.8067 31.8406 96.5966 31.8487 96.2605 31.8487C95.9244 31.8487 95.7143 31.8406 95.7143 31.8277C95.7143 31.8162 95.6198 31.8067 95.5042 31.8067C95.3887 31.8067 95.2941 31.7972 95.2941 31.7857C95.2941 31.7741 95.2374 31.7647 95.1681 31.7647C95.0987 31.7647 95.042 31.7552 95.042 31.7437C95.042 31.7322 94.9853 31.7227 94.916 31.7227C94.8466 31.7227 94.7899 31.7133 94.7899 31.7017C94.7899 31.6902 94.7521 31.6807 94.7059 31.6807C94.6597 31.6807 94.6219 31.6712 94.6219 31.6597C94.6219 31.6481 94.584 31.6387 94.5378 31.6387C94.4916 31.6387 94.4538 31.6292 94.4538 31.6176C94.4538 31.6061 94.4201 31.5966 94.379 31.5966C94.3379 31.5966 94.277 31.5777 94.2437 31.5546C94.2104 31.5315 94.1587 31.5126 94.1288 31.5126C94.0579 31.5126 93.3613 31.1644 93.3613 31.1289C93.3613 31.114 93.3235 31.0881 93.2773 31.0714C93.2311 31.0547 93.1933 31.0243 93.1933 31.0037C93.1933 30.9832 93.1744 30.9664 93.1513 30.9664C93.1282 30.9664 93.1092 30.9475 93.1092 30.9244C93.1092 30.9013 93.0903 30.8824 93.0672 30.8824C93.0441 30.8824 93.0252 30.8634 93.0252 30.8403C93.0252 30.8172 93.0063 30.7983 92.9832 30.7983C92.9601 30.7983 92.9412 30.7794 92.9412 30.7563C92.9412 30.7332 92.9223 30.7143 92.8992 30.7143C92.8761 30.7143 92.8571 30.6859 92.8571 30.6513C92.8571 30.6166 92.8382 30.5882 92.8151 30.5882C92.792 30.5882 92.7731 30.541 92.7731 30.4832C92.7731 30.4254 92.7542 30.3782 92.7311 30.3782C92.705 30.3782 92.6891 30.2591 92.6891 30.063C92.6891 29.8669 92.705 29.7479 92.7311 29.7479C92.7542 29.7479 92.7731 29.7101 92.7731 29.6639C92.7731 29.6177 92.792 29.5798 92.8151 29.5798C92.8382 29.5798 92.8571 29.5514 92.8571 29.5168C92.8571 29.4822 92.8761 29.4538 92.8992 29.4538C92.9223 29.4538 92.9412 29.4349 92.9412 29.4118C92.9412 29.3887 92.9601 29.3697 92.9832 29.3697C93.0063 29.3697 93.0252 29.3435 93.0252 29.3113C93.0252 29.2771 93.0599 29.2405 93.1092 29.2227C93.1555 29.206 93.1933 29.1777 93.1933 29.1597C93.1933 29.1417 93.2311 29.1133 93.2773 29.0966C93.3235 29.08 93.3613 29.0541 93.3613 29.0392C93.3613 29.0037 94.0579 28.6555 94.1288 28.6555C94.1587 28.6555 94.2104 28.6365 94.2437 28.6134C94.277 28.5903 94.3379 28.5714 94.379 28.5714C94.4201 28.5714 94.4538 28.5619 94.4538 28.5504C94.4538 28.5388 94.4916 28.5294 94.5378 28.5294C94.584 28.5294 94.6219 28.5199 94.6219 28.5084C94.6219 28.4969 94.6597 28.4874 94.7059 28.4874C94.7521 28.4874 94.7899 28.478 94.7899 28.4664C94.7899 28.4549 94.8277 28.4454 94.874 28.4454C94.9202 28.4454 94.958 28.4359 94.958 28.4244C94.958 28.4128 95.0147 28.4034 95.084 28.4034C95.1534 28.4034 95.2101 28.3939 95.2101 28.3824C95.2101 28.3708 95.2857 28.3613 95.3782 28.3613C95.4706 28.3613 95.5462 28.3519 95.5462 28.3403C95.5462 28.3272 95.7983 28.3193 96.2185 28.3193C96.6387 28.3193 96.8908 28.3272 96.8908 28.3403ZM10.4202 28.4034C10.4202 28.4265 10.4391 28.4454 10.4622 28.4454C10.4853 28.4454 10.5042 28.4737 10.5042 28.5084C10.5042 28.5431 10.5231 28.5714 10.5462 28.5714C10.5693 28.5714 10.5882 28.5998 10.5882 28.6345C10.5882 28.6691 10.6071 28.6975 10.6303 28.6975C10.6534 28.6975 10.6723 28.7258 10.6723 28.7605C10.6723 28.7952 10.6912 28.8235 10.7143 28.8235C10.7374 28.8235 10.7563 28.8519 10.7563 28.8866C10.7563 28.9212 10.7752 28.9496 10.7983 28.9496C10.8214 28.9496 10.8403 28.9874 10.8403 29.0336C10.8403 29.0798 10.8592 29.1176 10.8824 29.1176C10.9055 29.1176 10.9244 29.146 10.9244 29.1807C10.9244 29.2154 10.9433 29.2437 10.9664 29.2437C10.9895 29.2437 11.0084 29.272 11.0084 29.3067C11.0084 29.3414 11.0273 29.3697 11.0504 29.3697C11.0735 29.3697 11.0924 29.3981 11.0924 29.4328C11.0924 29.4675 11.1113 29.4958 11.1345 29.4958C11.1576 29.4958 11.1765 29.5241 11.1765 29.5588C11.1765 29.5935 11.1954 29.6218 11.2185 29.6218C11.2416 29.6218 11.2605 29.6502 11.2605 29.6849C11.2605 29.7196 11.2794 29.7479 11.3025 29.7479C11.3256 29.7479 11.3445 29.7762 11.3445 29.8109C11.3445 29.8456 11.3634 29.8739 11.3866 29.8739C11.4097 29.8739 11.4286 29.9118 11.4286 29.958C11.4286 30.0042 11.4475 30.042 11.4706 30.042C11.4937 30.042 11.5126 30.0704 11.5126 30.105C11.5126 30.1397 11.5315 30.1681 11.5546 30.1681C11.5777 30.1681 11.5966 30.1965 11.5966 30.2311C11.5966 30.2657 11.6155 30.2941 11.6387 30.2941C11.6618 30.2941 11.6807 30.3225 11.6807 30.3571C11.6807 30.3918 11.6996 30.4202 11.7227 30.4202C11.7458 30.4202 11.7647 30.4486 11.7647 30.4832C11.7647 30.5178 11.7836 30.5462 11.8067 30.5462C11.8298 30.5462 11.8487 30.5746 11.8487 30.6092C11.8487 30.6439 11.8676 30.6723 11.8908 30.6723C11.9139 30.6723 11.9328 30.7007 11.9328 30.7353C11.9328 30.7843 11.9514 30.7983 12.0168 30.7983C12.0822 30.7983 12.1008 30.7843 12.1008 30.7353C12.1008 30.7007 12.1197 30.6723 12.1429 30.6723C12.166 30.6723 12.1849 30.6439 12.1849 30.6092C12.1849 30.5746 12.2038 30.5462 12.2269 30.5462C12.25 30.5462 12.2689 30.5178 12.2689 30.4832C12.2689 30.4486 12.2878 30.4202 12.3109 30.4202C12.334 30.4202 12.3529 30.3918 12.3529 30.3571C12.3529 30.3225 12.3718 30.2941 12.395 30.2941C12.4181 30.2941 12.437 30.2657 12.437 30.2311C12.437 30.1965 12.4559 30.1681 12.479 30.1681C12.5021 30.1681 12.521 30.1397 12.521 30.105C12.521 30.0704 12.5399 30.042 12.563 30.042C12.5861 30.042 12.605 30.0136 12.605 29.979C12.605 29.9444 12.6239 29.916 12.6471 29.916C12.6702 29.916 12.6891 29.8876 12.6891 29.8529C12.6891 29.8183 12.708 29.7899 12.7311 29.7899C12.7542 29.7899 12.7731 29.7615 12.7731 29.7269C12.7731 29.6923 12.792 29.6639 12.8151 29.6639C12.8382 29.6639 12.8571 29.6355 12.8571 29.6008C12.8571 29.5662 12.8761 29.5378 12.8992 29.5378C12.9223 29.5378 12.9412 29.5094 12.9412 29.4748C12.9412 29.4402 12.9601 29.4118 12.9832 29.4118C13.0063 29.4118 13.0252 29.3834 13.0252 29.3487C13.0252 29.3141 13.0441 29.2857 13.0672 29.2857C13.0903 29.2857 13.1092 29.2573 13.1092 29.2227C13.1092 29.1881 13.1282 29.1597 13.1513 29.1597C13.1744 29.1597 13.1933 29.1313 13.1933 29.0966C13.1933 29.0619 13.2122 29.0336 13.2353 29.0336C13.2584 29.0336 13.2773 29.0052 13.2773 28.9706C13.2773 28.9359 13.2962 28.9076 13.3193 28.9076C13.3424 28.9076 13.3613 28.8792 13.3613 28.8445C13.3613 28.8098 13.3803 28.7815 13.4034 28.7815C13.4265 28.7815 13.4454 28.7532 13.4454 28.7185C13.4454 28.6838 13.4643 28.6555 13.4874 28.6555C13.5105 28.6555 13.5294 28.6271 13.5294 28.5924C13.5294 28.5577 13.5483 28.5294 13.5714 28.5294C13.5945 28.5294 13.6134 28.5051 13.6134 28.4754C13.6134 28.3794 13.696 28.3613 14.1357 28.3613C14.5098 28.3613 14.5378 28.3643 14.5378 28.4034C14.5378 28.4265 14.5567 28.4454 14.5798 28.4454C14.6029 28.4454 14.6218 28.4737 14.6218 28.5084C14.6218 28.5431 14.6408 28.5714 14.6639 28.5714C14.687 28.5714 14.7059 28.5998 14.7059 28.6345C14.7059 28.6691 14.7248 28.6975 14.7479 28.6975C14.771 28.6975 14.7899 28.7258 14.7899 28.7605C14.7899 28.7952 14.8088 28.8235 14.8319 28.8235C14.855 28.8235 14.874 28.8519 14.874 28.8866C14.874 28.9212 14.8929 28.9496 14.916 28.9496C14.9391 28.9496 14.958 28.9779 14.958 29.0126C14.958 29.0472 14.9769 29.0756 15 29.0756C15.0231 29.0756 15.042 29.104 15.042 29.1387C15.042 29.1733 15.0609 29.2017 15.084 29.2017C15.1071 29.2017 15.1261 29.2301 15.1261 29.2647C15.1261 29.2993 15.145 29.3277 15.1681 29.3277C15.1912 29.3277 15.2101 29.3561 15.2101 29.3908C15.2101 29.4254 15.229 29.4538 15.2521 29.4538C15.2752 29.4538 15.2941 29.4822 15.2941 29.5168C15.2941 29.5514 15.313 29.5798 15.3361 29.5798C15.3592 29.5798 15.3782 29.6177 15.3782 29.6639C15.3782 29.7101 15.3971 29.7479 15.4202 29.7479C15.4433 29.7479 15.4622 29.7762 15.4622 29.8109C15.4622 29.8456 15.4811 29.8739 15.5042 29.8739C15.5273 29.8739 15.5462 29.9023 15.5462 29.937C15.5462 29.9717 15.5651 30 15.5882 30C15.6113 30 15.6303 30.0283 15.6303 30.063C15.6303 30.0977 15.6492 30.1261 15.6723 30.1261C15.6954 30.1261 15.7143 30.1544 15.7143 30.1891C15.7143 30.2238 15.7332 30.2521 15.7563 30.2521C15.7794 30.2521 15.7983 30.2804 15.7983 30.3151C15.7983 30.3498 15.8172 30.3782 15.8403 30.3782C15.8634 30.3782 15.8824 30.4065 15.8824 30.4412C15.8824 30.4759 15.9013 30.5042 15.9244 30.5042C15.9475 30.5042 15.9664 30.5325 15.9664 30.5672C15.9664 30.6019 15.9853 30.6303 16.0084 30.6303C16.0315 30.6303 16.0504 30.6586 16.0504 30.6933C16.0504 30.728 16.0693 30.7563 16.0924 30.7563C16.1155 30.7563 16.1345 30.7846 16.1345 30.8193C16.1345 30.854 16.1534 30.8824 16.1765 30.8824C16.1996 30.8824 16.2185 30.854 16.2185 30.8193C16.2185 30.7846 16.2374 30.7563 16.2605 30.7563C16.2836 30.7563 16.3025 30.728 16.3025 30.6933C16.3025 30.6586 16.3214 30.6303 16.3445 30.6303C16.3676 30.6303 16.3866 30.6019 16.3866 30.5672C16.3866 30.5325 16.4055 30.5042 16.4286 30.5042C16.4517 30.5042 16.4706 30.4759 16.4706 30.4412C16.4706 30.4065 16.4895 30.3782 16.5126 30.3782C16.5357 30.3782 16.5546 30.3403 16.5546 30.2941C16.5546 30.2479 16.5735 30.2101 16.5966 30.2101C16.6197 30.2101 16.6387 30.1817 16.6387 30.1471C16.6387 30.1124 16.6576 30.084 16.6807 30.084C16.7038 30.084 16.7227 30.0556 16.7227 30.021C16.7227 29.9864 16.7416 29.958 16.7647 29.958C16.7878 29.958 16.8067 29.9296 16.8067 29.895C16.8067 29.8603 16.8256 29.8319 16.8487 29.8319C16.8718 29.8319 16.8908 29.8035 16.8908 29.7689C16.8908 29.7343 16.9097 29.7059 16.9328 29.7059C16.9559 29.7059 16.9748 29.6775 16.9748 29.6429C16.9748 29.6082 16.9937 29.5798 17.0168 29.5798C17.0399 29.5798 17.0588 29.5514 17.0588 29.5168C17.0588 29.4822 17.0777 29.4538 17.1008 29.4538C17.124 29.4538 17.1429 29.4254 17.1429 29.3908C17.1429 29.3561 17.1618 29.3277 17.1849 29.3277C17.208 29.3277 17.2269 29.2899 17.2269 29.2437C17.2269 29.1975 17.2458 29.1597 17.2689 29.1597C17.292 29.1597 17.3109 29.1313 17.3109 29.0966C17.3109 29.0619 17.3298 29.0336 17.3529 29.0336C17.3761 29.0336 17.395 29.0052 17.395 28.9706C17.395 28.9359 17.4139 28.9076 17.437 28.9076C17.4601 28.9076 17.479 28.8792 17.479 28.8445C17.479 28.8098 17.4979 28.7815 17.521 28.7815C17.5441 28.7815 17.563 28.7532 17.563 28.7185C17.563 28.6838 17.5819 28.6555 17.605 28.6555C17.6282 28.6555 17.6471 28.6271 17.6471 28.5924C17.6471 28.5577 17.666 28.5294 17.6891 28.5294C17.7122 28.5294 17.7311 28.5051 17.7311 28.4754C17.7311 28.3758 17.808 28.3613 18.3374 28.3613H18.8235V28.4244C18.8235 28.4591 18.8046 28.4874 18.7815 28.4874C18.7584 28.4874 18.7395 28.5157 18.7395 28.5504C18.7395 28.5851 18.7206 28.6134 18.6975 28.6134C18.6363 28.6134 18.6459 28.7343 18.708 28.7454C18.7385 28.7508 18.7449 28.7625 18.7232 28.7734C18.7016 28.7842 18.6781 28.7811 18.6672 28.7658C18.6319 28.7163 18.5714 28.7394 18.5714 28.8025C18.5714 28.8372 18.5525 28.8655 18.5294 28.8655C18.5063 28.8655 18.4874 28.8939 18.4874 28.9286C18.4874 28.9633 18.4685 28.9916 18.4454 28.9916C18.4223 28.9916 18.4034 29.0199 18.4034 29.0546C18.4034 29.0893 18.3845 29.1176 18.3613 29.1176C18.3382 29.1176 18.3193 29.1555 18.3193 29.2017C18.3193 29.2479 18.3004 29.2857 18.2773 29.2857C18.2542 29.2857 18.2353 29.3141 18.2353 29.3487C18.2353 29.3834 18.2164 29.4118 18.1933 29.4118C18.1702 29.4118 18.1513 29.4402 18.1513 29.4748C18.1513 29.5094 18.1324 29.5378 18.1092 29.5378C18.0861 29.5378 18.0672 29.5662 18.0672 29.6008C18.0672 29.6355 18.0483 29.6639 18.0252 29.6639C18.0021 29.6639 17.9832 29.6923 17.9832 29.7269C17.9832 29.7615 17.9643 29.7899 17.9412 29.7899C17.9181 29.7899 17.8992 29.8183 17.8992 29.8529C17.8992 29.8876 17.8803 29.916 17.8571 29.916C17.834 29.916 17.8151 29.9444 17.8151 29.979C17.8151 30.0136 17.7962 30.042 17.7731 30.042C17.75 30.042 17.7311 30.0704 17.7311 30.105C17.7311 30.1397 17.7122 30.1681 17.6891 30.1681C17.666 30.1681 17.6471 30.1965 17.6471 30.2311C17.6471 30.2657 17.6282 30.2941 17.605 30.2941C17.5819 30.2941 17.563 30.332 17.563 30.3782C17.563 30.4244 17.5441 30.4622 17.521 30.4622C17.4979 30.4622 17.479 30.4906 17.479 30.5252C17.479 30.5598 17.4601 30.5882 17.437 30.5882C17.4139 30.5882 17.395 30.6166 17.395 30.6513C17.395 30.6859 17.3761 30.7143 17.3529 30.7143C17.3298 30.7143 17.3109 30.7427 17.3109 30.7773C17.3109 30.8119 17.292 30.8403 17.2689 30.8403C17.2458 30.8403 17.2269 30.8687 17.2269 30.9034C17.2269 30.9381 17.208 30.9664 17.1849 30.9664C17.1618 30.9664 17.1429 30.9948 17.1429 31.0294C17.1429 31.0641 17.124 31.0924 17.1008 31.0924C17.0777 31.0924 17.0588 31.1208 17.0588 31.1555C17.0588 31.1902 17.0399 31.2185 17.0168 31.2185C16.9937 31.2185 16.9748 31.2469 16.9748 31.2815C16.9748 31.3162 16.9559 31.3445 16.9328 31.3445C16.9097 31.3445 16.8908 31.3729 16.8908 31.4076C16.8908 31.4423 16.8718 31.4706 16.8487 31.4706C16.8256 31.4706 16.8067 31.499 16.8067 31.5336C16.8067 31.5683 16.7878 31.5966 16.7647 31.5966C16.7416 31.5966 16.7227 31.6345 16.7227 31.6807V31.7647H16.2185C15.7423 31.7647 15.7143 31.7624 15.7143 31.7227C15.7143 31.6996 15.6954 31.6807 15.6723 31.6807C15.6492 31.6807 15.6303 31.6523 15.6303 31.6176C15.6303 31.583 15.6113 31.5546 15.5882 31.5546C15.5651 31.5546 15.5462 31.5262 15.5462 31.4916C15.5462 31.457 15.5273 31.4286 15.5042 31.4286C15.4811 31.4286 15.4622 31.4002 15.4622 31.3655C15.4622 31.3309 15.4433 31.3025 15.4202 31.3025C15.3971 31.3025 15.3782 31.2741 15.3782 31.2395C15.3782 31.2049 15.3592 31.1765 15.3361 31.1765C15.313 31.1765 15.2941 31.1481 15.2941 31.1134C15.2941 31.0788 15.2752 31.0504 15.2521 31.0504C15.229 31.0504 15.2101 31.022 15.2101 30.9874C15.2101 30.9528 15.1912 30.9244 15.1681 30.9244C15.145 30.9244 15.1261 30.896 15.1261 30.8613C15.1261 30.8267 15.1071 30.7983 15.084 30.7983C15.0609 30.7983 15.042 30.7699 15.042 30.7353C15.042 30.7007 15.0231 30.6723 15 30.6723C14.9769 30.6723 14.958 30.6439 14.958 30.6092C14.958 30.5746 14.9391 30.5462 14.916 30.5462C14.8929 30.5462 14.874 30.5178 14.874 30.4832C14.874 30.4486 14.855 30.4202 14.8319 30.4202C14.8088 30.4202 14.7899 30.3918 14.7899 30.3571C14.7899 30.3225 14.771 30.2941 14.7479 30.2941C14.7248 30.2941 14.7059 30.2657 14.7059 30.2311C14.7059 30.1965 14.687 30.1681 14.6639 30.1681C14.6408 30.1681 14.6218 30.1397 14.6218 30.105C14.6218 30.0704 14.6029 30.042 14.5798 30.042C14.5567 30.042 14.5378 30.0136 14.5378 29.979C14.5378 29.9444 14.5189 29.916 14.4958 29.916C14.4727 29.916 14.4538 29.8876 14.4538 29.8529C14.4538 29.8183 14.4349 29.7899 14.4118 29.7899C14.3887 29.7899 14.3697 29.7615 14.3697 29.7269C14.3697 29.6923 14.3508 29.6639 14.3277 29.6639C14.3046 29.6639 14.2857 29.6355 14.2857 29.6008C14.2857 29.5662 14.2668 29.5378 14.2437 29.5378C14.2206 29.5378 14.2017 29.5094 14.2017 29.4748C14.2017 29.4402 14.1828 29.4118 14.1597 29.4118C14.1366 29.4118 14.1176 29.3928 14.1176 29.3697C14.1176 29.3466 14.0987 29.3277 14.0756 29.3277C14.0525 29.3277 14.0336 29.3561 14.0336 29.3908C14.0336 29.4254 14.0147 29.4538 13.9916 29.4538C13.9685 29.4538 13.9496 29.4822 13.9496 29.5168C13.9496 29.5514 13.9307 29.5798 13.9076 29.5798C13.8845 29.5798 13.8655 29.6082 13.8655 29.6429C13.8655 29.6775 13.8466 29.7059 13.8235 29.7059C13.8004 29.7059 13.7815 29.7343 13.7815 29.7689C13.7815 29.8035 13.7626 29.8319 13.7395 29.8319C13.7164 29.8319 13.6975 29.8603 13.6975 29.895C13.6975 29.9296 13.6786 29.958 13.6555 29.958C13.6324 29.958 13.6134 29.9864 13.6134 30.021C13.6134 30.0556 13.5945 30.084 13.5714 30.084C13.5483 30.084 13.5294 30.1124 13.5294 30.1471C13.5294 30.1817 13.5105 30.2101 13.4874 30.2101C13.4643 30.2101 13.4454 30.2385 13.4454 30.2731C13.4454 30.3077 13.4265 30.3361 13.4034 30.3361C13.3803 30.3361 13.3613 30.374 13.3613 30.4202C13.3613 30.4664 13.3424 30.5042 13.3193 30.5042C13.2962 30.5042 13.2773 30.5325 13.2773 30.5672C13.2773 30.6019 13.2584 30.6303 13.2353 30.6303C13.2122 30.6303 13.1933 30.6586 13.1933 30.6933C13.1933 30.728 13.1744 30.7563 13.1513 30.7563C13.1282 30.7563 13.1092 30.7846 13.1092 30.8193C13.1092 30.854 13.0903 30.8824 13.0672 30.8824C13.0441 30.8824 13.0252 30.9107 13.0252 30.9454C13.0252 30.9801 13.0063 31.0084 12.9832 31.0084C12.9601 31.0084 12.9412 31.0367 12.9412 31.0714C12.9412 31.1061 12.9223 31.1345 12.8992 31.1345C12.8761 31.1345 12.8571 31.1628 12.8571 31.1975C12.8571 31.2322 12.8382 31.2605 12.8151 31.2605C12.792 31.2605 12.7731 31.2888 12.7731 31.3235C12.7731 31.3582 12.7542 31.3866 12.7311 31.3866C12.708 31.3866 12.6891 31.4149 12.6891 31.4496C12.6891 31.4843 12.6702 31.5126 12.6471 31.5126C12.6239 31.5126 12.605 31.5409 12.605 31.5756C12.605 31.6103 12.5861 31.6387 12.563 31.6387C12.5399 31.6387 12.521 31.667 12.521 31.7017V31.7647H12.0168C11.5406 31.7647 11.5126 31.7624 11.5126 31.7227C11.5126 31.6996 11.4937 31.6807 11.4706 31.6807C11.4475 31.6807 11.4286 31.6523 11.4286 31.6176C11.4286 31.583 11.4097 31.5546 11.3866 31.5546C11.3634 31.5546 11.3445 31.5262 11.3445 31.4916C11.3445 31.457 11.3256 31.4286 11.3025 31.4286C11.2794 31.4286 11.2605 31.3907 11.2605 31.3445C11.2605 31.2983 11.2416 31.2605 11.2185 31.2605C11.1954 31.2605 11.1765 31.2322 11.1765 31.1975C11.1765 31.1628 11.1576 31.1345 11.1345 31.1345C11.1113 31.1345 11.0924 31.1061 11.0924 31.0714C11.0924 31.0367 11.0735 31.0084 11.0504 31.0084C11.0273 31.0084 11.0084 30.9801 11.0084 30.9454C11.0084 30.9107 10.9895 30.8824 10.9664 30.8824C10.9433 30.8824 10.9244 30.854 10.9244 30.8193C10.9244 30.7846 10.9055 30.7563 10.8824 30.7563C10.8592 30.7563 10.8403 30.728 10.8403 30.6933C10.8403 30.6586 10.8214 30.6303 10.7983 30.6303C10.7752 30.6303 10.7563 30.6019 10.7563 30.5672C10.7563 30.5325 10.7374 30.5042 10.7143 30.5042C10.6912 30.5042 10.6723 30.4759 10.6723 30.4412C10.6723 30.4065 10.6534 30.3782 10.6303 30.3782C10.6071 30.3782 10.5882 30.3498 10.5882 30.3151C10.5882 30.2804 10.5693 30.2521 10.5462 30.2521C10.5231 30.2521 10.5042 30.2143 10.5042 30.1681C10.5042 30.1219 10.4853 30.084 10.4622 30.084C10.4391 30.084 10.4202 30.0556 10.4202 30.021C10.4202 29.9864 10.4013 29.958 10.3782 29.958C10.355 29.958 10.3361 29.9296 10.3361 29.895C10.3361 29.8603 10.3172 29.8319 10.2941 29.8319C10.271 29.8319 10.2521 29.8035 10.2521 29.7689C10.2521 29.7343 10.2332 29.7059 10.2101 29.7059C10.187 29.7059 10.1681 29.6775 10.1681 29.6429C10.1681 29.6082 10.1492 29.5798 10.1261 29.5798C10.1029 29.5798 10.084 29.5514 10.084 29.5168C10.084 29.4822 10.0651 29.4538 10.042 29.4538C10.0189 29.4538 10 29.4254 10 29.3908C10 29.3561 9.98109 29.3277 9.95798 29.3277C9.93487 29.3277 9.91597 29.2993 9.91597 29.2647C9.91597 29.2301 9.89706 29.2017 9.87395 29.2017C9.85084 29.2017 9.83193 29.1733 9.83193 29.1387C9.83193 29.104 9.81303 29.0756 9.78992 29.0756C9.76681 29.0756 9.7479 29.0378 9.7479 28.9916C9.7479 28.9454 9.72899 28.9076 9.70588 28.9076C9.68277 28.9076 9.66387 28.8792 9.66387 28.8445C9.66387 28.8098 9.64496 28.7815 9.62185 28.7815C9.59874 28.7815 9.57983 28.7532 9.57983 28.7185C9.57983 28.6838 9.56092 28.6555 9.53782 28.6555C9.51471 28.6555 9.4958 28.6271 9.4958 28.5924C9.4958 28.5577 9.47689 28.5294 9.45378 28.5294C9.43067 28.5294 9.41176 28.4916 9.41176 28.4454V28.3613H9.91597C10.3921 28.3613 10.4202 28.3637 10.4202 28.4034ZM29.5798 28.6134V28.8655H27.6891H25.7983V29.3697V29.8739H27.437H29.0756V30.105V30.3361H27.437H25.7983V30.8193V31.3025H27.6891H29.5798V31.5336V31.7647H27.1849H24.7899V30.063V28.3613H27.1849H29.5798V28.6134ZM36.9748 29.8319V31.3025H38.7815H40.5882V31.5336V31.7647H38.2773H35.9664V30.063V28.3613H36.4706H36.9748V29.8319ZM47.6471 29.8319V31.3025H49.4958H51.3445V31.5336V31.7647H49.0336H46.7227V30.063V28.3613H47.1849H47.6471V29.8319ZM61.3445 29.0966V29.8319H62.7311H64.1176V30.084V30.3361H62.7311H61.3445V31.0714V31.8067H60.8403H60.3361V31.0714V30.3361H58.9496H57.563V30.084V29.8319H58.9496H60.3361V29.0966V28.3613H60.8403H61.3445V29.0966ZM107.815 28.3824C107.815 28.3941 107.927 28.4034 108.067 28.4034C108.207 28.4034 108.319 28.4127 108.319 28.4244C108.319 28.4359 108.395 28.4454 108.487 28.4454C108.58 28.4454 108.655 28.4549 108.655 28.4664C108.655 28.478 108.693 28.4874 108.739 28.4874C108.786 28.4874 108.824 28.4969 108.824 28.5084C108.824 28.5199 108.861 28.5294 108.908 28.5294C108.954 28.5294 108.992 28.5388 108.992 28.5504C108.992 28.5619 109.029 28.5714 109.076 28.5714C109.122 28.5714 109.16 28.5809 109.16 28.5924C109.16 28.604 109.19 28.6134 109.227 28.6134C109.264 28.6134 109.347 28.6418 109.412 28.6765C109.477 28.7112 109.551 28.7395 109.578 28.7395C109.64 28.7395 109.832 28.8355 109.832 28.8666C109.832 28.8799 109.889 28.9172 109.958 28.9496C110.027 28.982 110.084 29.0215 110.084 29.0374C110.084 29.0533 110.122 29.08 110.168 29.0966C110.214 29.1133 110.252 29.1438 110.252 29.1643C110.252 29.1849 110.271 29.2017 110.294 29.2017C110.317 29.2017 110.336 29.2301 110.336 29.2647C110.336 29.2993 110.355 29.3277 110.378 29.3277C110.401 29.3277 110.42 29.3561 110.42 29.3908C110.42 29.4254 110.439 29.4538 110.462 29.4538C110.485 29.4538 110.504 29.4822 110.504 29.5168C110.504 29.5514 110.523 29.5798 110.546 29.5798C110.57 29.5798 110.588 29.6428 110.588 29.7269C110.588 29.8109 110.606 29.8739 110.63 29.8739C110.655 29.8739 110.672 29.958 110.672 30.084C110.672 30.2101 110.655 30.2941 110.63 30.2941C110.606 30.2941 110.588 30.3572 110.588 30.4412C110.588 30.5252 110.57 30.5882 110.546 30.5882C110.523 30.5882 110.504 30.6166 110.504 30.6513C110.504 30.6859 110.485 30.7143 110.462 30.7143C110.439 30.7143 110.42 30.7427 110.42 30.7773C110.42 30.8119 110.401 30.8403 110.378 30.8403C110.355 30.8403 110.336 30.8593 110.336 30.8824C110.336 30.9055 110.317 30.9244 110.294 30.9244C110.271 30.9244 110.252 30.9433 110.252 30.9664C110.252 30.9895 110.233 31.0084 110.21 31.0084C110.187 31.0084 110.168 31.0273 110.168 31.0504C110.168 31.0735 110.149 31.0924 110.126 31.0924C110.103 31.0924 110.084 31.1068 110.084 31.1242C110.084 31.1657 109.306 31.5546 109.223 31.5546C109.188 31.5546 109.16 31.5641 109.16 31.5756C109.16 31.5872 109.122 31.5966 109.076 31.5966C109.029 31.5966 108.992 31.6061 108.992 31.6176C108.992 31.6292 108.954 31.6387 108.908 31.6387C108.861 31.6387 108.824 31.6481 108.824 31.6597C108.824 31.6712 108.767 31.6807 108.697 31.6807C108.628 31.6807 108.571 31.6902 108.571 31.7017C108.571 31.7133 108.515 31.7227 108.445 31.7227C108.376 31.7227 108.319 31.7322 108.319 31.7437C108.319 31.7573 107.689 31.7647 106.513 31.7647H104.706V30.063V28.3613H106.261C107.269 28.3613 107.815 28.3687 107.815 28.3824ZM84.0336 28.8445C84.0336 28.8561 83.9769 28.8655 83.9076 28.8655C83.8382 28.8655 83.7815 28.875 83.7815 28.8866C83.7815 28.8981 83.7437 28.9076 83.6975 28.9076C83.6513 28.9076 83.6134 28.917 83.6134 28.9286C83.6134 28.9402 83.5756 28.9496 83.5294 28.9496C83.4832 28.9496 83.4454 28.9591 83.4454 28.9706C83.4454 28.9822 83.4117 28.9916 83.3706 28.9916C83.3295 28.9916 83.2686 29.0105 83.2353 29.0336C83.202 29.0567 83.1501 29.0756 83.1201 29.0756C83.0489 29.0756 82.605 29.2976 82.605 29.3332C82.605 29.3482 82.5672 29.3741 82.521 29.3908C82.4748 29.4074 82.437 29.4379 82.437 29.4584C82.437 29.479 82.4181 29.4958 82.395 29.4958C82.3719 29.4958 82.3529 29.5147 82.3529 29.5378C82.3529 29.5609 82.334 29.5798 82.3109 29.5798C82.2878 29.5798 82.2689 29.5987 82.2689 29.6218C82.2689 29.6449 82.25 29.6639 82.2269 29.6639C82.2038 29.6639 82.1849 29.7017 82.1849 29.7479C82.1849 29.7941 82.166 29.8319 82.1429 29.8319C82.1172 29.8319 82.1008 29.93 82.1008 30.084C82.1008 30.2381 82.1172 30.3361 82.1429 30.3361C82.166 30.3361 82.1849 30.374 82.1849 30.4202C82.1849 30.4664 82.2038 30.5042 82.2269 30.5042C82.25 30.5042 82.2689 30.5231 82.2689 30.5462C82.2689 30.5693 82.2878 30.5882 82.3109 30.5882C82.334 30.5882 82.3529 30.6072 82.3529 30.6303C82.3529 30.6534 82.3719 30.6723 82.395 30.6723C82.4181 30.6723 82.437 30.6891 82.437 30.7097C82.437 30.7302 82.4748 30.7606 82.521 30.7773C82.5672 30.794 82.605 30.8199 82.605 30.8349C82.605 30.8705 83.0489 31.0924 83.1201 31.0924C83.1501 31.0924 83.202 31.1114 83.2353 31.1345C83.2686 31.1576 83.3295 31.1765 83.3706 31.1765C83.4117 31.1765 83.4454 31.1859 83.4454 31.1975C83.4454 31.2091 83.4832 31.2185 83.5294 31.2185C83.5756 31.2185 83.6134 31.228 83.6134 31.2395C83.6134 31.251 83.6513 31.2605 83.6975 31.2605C83.7437 31.2605 83.7815 31.2699 83.7815 31.2815C83.7815 31.293 83.8571 31.3025 83.9496 31.3025C84.042 31.3025 84.1176 31.3119 84.1176 31.3235C84.1176 31.3363 84.3137 31.3445 84.6219 31.3445C84.93 31.3445 85.1261 31.3363 85.1261 31.3235C85.1261 31.3119 85.2017 31.3025 85.2941 31.3025C85.3866 31.3025 85.4622 31.293 85.4622 31.2815C85.4622 31.2699 85.5 31.2605 85.5462 31.2605C85.5924 31.2605 85.6303 31.251 85.6303 31.2395C85.6303 31.228 85.6681 31.2185 85.7143 31.2185C85.7605 31.2185 85.7983 31.2091 85.7983 31.1975C85.7983 31.1859 85.8361 31.1765 85.8824 31.1765C85.9286 31.1765 85.9664 31.167 85.9664 31.1555C85.9664 31.1439 85.995 31.1345 86.0301 31.1345C86.1076 31.1345 86.7227 30.831 86.7227 30.7928C86.7227 30.7778 86.7605 30.752 86.8067 30.7353C86.8529 30.7186 86.8908 30.6882 86.8908 30.6677C86.8908 30.6471 86.9097 30.6303 86.9328 30.6303C86.9559 30.6303 86.9748 30.6019 86.9748 30.5672C86.9748 30.5325 86.9937 30.5042 87.0168 30.5042C87.0399 30.5042 87.0588 30.4759 87.0588 30.4412C87.0588 30.4065 87.0777 30.3782 87.1008 30.3782C87.1269 30.3782 87.1429 30.2661 87.1429 30.084C87.1429 29.9019 87.1269 29.7899 87.1008 29.7899C87.0777 29.7899 87.0588 29.7615 87.0588 29.7269C87.0588 29.6923 87.0399 29.6639 87.0168 29.6639C86.9937 29.6639 86.9748 29.6355 86.9748 29.6008C86.9748 29.5662 86.9559 29.5378 86.9328 29.5378C86.9097 29.5378 86.8908 29.521 86.8908 29.5005C86.8908 29.4799 86.8529 29.4495 86.8067 29.4328C86.7605 29.4161 86.7227 29.3902 86.7227 29.3752C86.7227 29.3398 86.1103 29.0336 86.0394 29.0336C86.0094 29.0336 85.9577 29.0147 85.9244 28.9916C85.8911 28.9685 85.8302 28.9496 85.789 28.9496C85.7479 28.9496 85.7143 28.9402 85.7143 28.9286C85.7143 28.917 85.6576 28.9076 85.5882 28.9076C85.5189 28.9076 85.4622 28.8981 85.4622 28.8866C85.4622 28.875 85.4055 28.8655 85.3361 28.8655C85.2668 28.8655 85.2101 28.8561 85.2101 28.8445C85.2101 28.8315 84.986 28.8235 84.6219 28.8235C84.2577 28.8235 84.0336 28.8315 84.0336 28.8445ZM95.6303 28.8445C95.6303 28.8561 95.5735 28.8655 95.5042 28.8655C95.4349 28.8655 95.3782 28.875 95.3782 28.8866C95.3782 28.8981 95.3403 28.9076 95.2941 28.9076C95.2479 28.9076 95.2101 28.917 95.2101 28.9286C95.2101 28.9402 95.1723 28.9496 95.1261 28.9496C95.0798 28.9496 95.042 28.9591 95.042 28.9706C95.042 28.9822 95.0084 28.9916 94.9673 28.9916C94.9261 28.9916 94.8653 29.0105 94.8319 29.0336C94.7986 29.0567 94.7468 29.0756 94.7167 29.0756C94.6455 29.0756 94.2017 29.2976 94.2017 29.3332C94.2017 29.3482 94.1639 29.3741 94.1176 29.3908C94.0714 29.4074 94.0336 29.4379 94.0336 29.4584C94.0336 29.479 94.0147 29.4958 93.9916 29.4958C93.9685 29.4958 93.9496 29.5147 93.9496 29.5378C93.9496 29.5609 93.9307 29.5798 93.9076 29.5798C93.8845 29.5798 93.8655 29.5987 93.8655 29.6218C93.8655 29.6449 93.8466 29.6639 93.8235 29.6639C93.8004 29.6639 93.7815 29.7017 93.7815 29.7479C93.7815 29.7941 93.7626 29.8319 93.7395 29.8319C93.7138 29.8319 93.6975 29.93 93.6975 30.084C93.6975 30.2381 93.7138 30.3361 93.7395 30.3361C93.7626 30.3361 93.7815 30.374 93.7815 30.4202C93.7815 30.4664 93.8004 30.5042 93.8235 30.5042C93.8466 30.5042 93.8655 30.5231 93.8655 30.5462C93.8655 30.5693 93.8845 30.5882 93.9076 30.5882C93.9307 30.5882 93.9496 30.6072 93.9496 30.6303C93.9496 30.6534 93.9685 30.6723 93.9916 30.6723C94.0147 30.6723 94.0336 30.6891 94.0336 30.7097C94.0336 30.7302 94.0714 30.7606 94.1176 30.7773C94.1639 30.794 94.2017 30.8199 94.2017 30.8349C94.2017 30.8705 94.6455 31.0924 94.7167 31.0924C94.7468 31.0924 94.7986 31.1114 94.8319 31.1345C94.8653 31.1576 94.9261 31.1765 94.9673 31.1765C95.0084 31.1765 95.042 31.1859 95.042 31.1975C95.042 31.2091 95.0798 31.2185 95.1261 31.2185C95.1723 31.2185 95.2101 31.228 95.2101 31.2395C95.2101 31.251 95.2479 31.2605 95.2941 31.2605C95.3403 31.2605 95.3782 31.2699 95.3782 31.2815C95.3782 31.293 95.4538 31.3025 95.5462 31.3025C95.6387 31.3025 95.7143 31.3119 95.7143 31.3235C95.7143 31.3363 95.9104 31.3445 96.2185 31.3445C96.5266 31.3445 96.7227 31.3363 96.7227 31.3235C96.7227 31.3119 96.7983 31.3025 96.8908 31.3025C96.9832 31.3025 97.0588 31.293 97.0588 31.2815C97.0588 31.2699 97.0966 31.2605 97.1429 31.2605C97.1891 31.2605 97.2269 31.251 97.2269 31.2395C97.2269 31.228 97.2647 31.2185 97.3109 31.2185C97.3571 31.2185 97.395 31.2091 97.395 31.1975C97.395 31.1859 97.4286 31.1765 97.4697 31.1765C97.5108 31.1765 97.5717 31.1576 97.605 31.1345C97.6384 31.1114 97.6902 31.0924 97.7201 31.0924C97.7912 31.0924 98.3193 30.8284 98.3193 30.7929C98.3193 30.7779 98.3571 30.752 98.4034 30.7353C98.4496 30.7186 98.4874 30.6882 98.4874 30.6677C98.4874 30.6471 98.5063 30.6303 98.5294 30.6303C98.5525 30.6303 98.5714 30.6019 98.5714 30.5672C98.5714 30.5325 98.5903 30.5042 98.6134 30.5042C98.6366 30.5042 98.6555 30.4759 98.6555 30.4412C98.6555 30.4065 98.6744 30.3782 98.6975 30.3782C98.7235 30.3782 98.7395 30.2661 98.7395 30.084C98.7395 29.9019 98.7235 29.7899 98.6975 29.7899C98.6744 29.7899 98.6555 29.7615 98.6555 29.7269C98.6555 29.6923 98.6366 29.6639 98.6134 29.6639C98.5903 29.6639 98.5714 29.6355 98.5714 29.6008C98.5714 29.5662 98.5525 29.5378 98.5294 29.5378C98.5063 29.5378 98.4874 29.521 98.4874 29.5005C98.4874 29.4799 98.4496 29.4495 98.4034 29.4328C98.3571 29.4161 98.3193 29.3902 98.3193 29.3752C98.3193 29.3398 97.707 29.0336 97.636 29.0336C97.6061 29.0336 97.5543 29.0147 97.521 28.9916C97.4877 28.9685 97.4268 28.9496 97.3857 28.9496C97.3446 28.9496 97.3109 28.9402 97.3109 28.9286C97.3109 28.917 97.2542 28.9076 97.1849 28.9076C97.1155 28.9076 97.0588 28.8981 97.0588 28.8866C97.0588 28.875 97.0021 28.8655 96.9328 28.8655C96.8634 28.8655 96.8067 28.8561 96.8067 28.8445C96.8067 28.8315 96.5826 28.8235 96.2185 28.8235C95.8543 28.8235 95.6303 28.8315 95.6303 28.8445ZM105.714 30.084V31.3025H106.765C107.437 31.3025 107.815 31.295 107.815 31.2815C107.815 31.2699 107.891 31.2605 107.983 31.2605C108.076 31.2605 108.151 31.251 108.151 31.2395C108.151 31.228 108.208 31.2185 108.277 31.2185C108.347 31.2185 108.403 31.2091 108.403 31.1975C108.403 31.1859 108.441 31.1765 108.487 31.1765C108.534 31.1765 108.571 31.167 108.571 31.1555C108.571 31.1439 108.6 31.1345 108.635 31.1345C108.718 31.1345 109.244 30.8717 109.244 30.8302C109.244 30.8126 109.263 30.7983 109.286 30.7983C109.309 30.7983 109.328 30.7794 109.328 30.7563C109.328 30.7332 109.347 30.7143 109.37 30.7143C109.393 30.7143 109.412 30.6954 109.412 30.6723C109.412 30.6492 109.431 30.6303 109.454 30.6303C109.477 30.6303 109.496 30.6019 109.496 30.5672C109.496 30.5325 109.515 30.5042 109.538 30.5042C109.561 30.5042 109.58 30.457 109.58 30.3992C109.58 30.3414 109.599 30.2941 109.622 30.2941C109.647 30.2941 109.664 30.2031 109.664 30.063C109.664 29.9229 109.647 29.8319 109.622 29.8319C109.599 29.8319 109.58 29.7941 109.58 29.7479C109.58 29.7017 109.561 29.6639 109.538 29.6639C109.515 29.6639 109.496 29.6355 109.496 29.6008C109.496 29.5662 109.477 29.5378 109.454 29.5378C109.431 29.5378 109.412 29.5189 109.412 29.4958C109.412 29.4727 109.393 29.4538 109.37 29.4538C109.347 29.4538 109.328 29.4349 109.328 29.4118C109.328 29.3887 109.309 29.3697 109.286 29.3697C109.263 29.3697 109.244 29.3554 109.244 29.3379C109.244 29.2963 108.718 29.0336 108.635 29.0336C108.6 29.0336 108.571 29.0241 108.571 29.0126C108.571 29.001 108.534 28.9916 108.487 28.9916C108.441 28.9916 108.403 28.9822 108.403 28.9706C108.403 28.9591 108.366 28.9496 108.319 28.9496C108.273 28.9496 108.235 28.9402 108.235 28.9286C108.235 28.917 108.16 28.9076 108.067 28.9076C107.975 28.9076 107.899 28.8981 107.899 28.8866C107.899 28.8731 107.507 28.8655 106.807 28.8655H105.714V30.084ZM85.042 31.1555C85.042 31.167 85.0231 31.1765 85 31.1765C84.9769 31.1765 84.958 31.167 84.958 31.1555C84.958 31.1439 84.9769 31.1345 85 31.1345C85.0231 31.1345 85.042 31.1439 85.042 31.1555ZM41.0084 31.9958C41.0084 32.0073 40.9895 32.0168 40.9664 32.0168C40.9433 32.0168 40.9244 32.0073 40.9244 31.9958C40.9244 31.9843 40.9433 31.9748 40.9664 31.9748C40.9895 31.9748 41.0084 31.9843 41.0084 31.9958ZM51.5966 31.9958C51.5966 32.0073 51.5777 32.0168 51.5546 32.0168C51.5315 32.0168 51.5126 32.0073 51.5126 31.9958C51.5126 31.9843 51.5315 31.9748 51.5546 31.9748C51.5777 31.9748 51.5966 31.9843 51.5966 31.9958Z" fill="white" fill-opacity="0.9"/>
</svg>
